<svg width="120" height="25" viewBox="0 0 120 25" fill="none" xmlns="http://www.w3.org/2000/svg">
<g clip-path="url(#clip0_944_941)">
<path opacity="0.3" d="M13.7815 0.701068C13.7815 0.701068 9.7931 0.102658 7.63264 1.21299C1.91779 4.14894 -0.900718 20.0138 0.254988 22.1503C0.490846 22.5688 -0.127103 20.7291 0.212533 18.3425C0.604058 15.5912 2.03572 11.9213 2.84943 10.2429C4.57591 6.67816 5.94861 3.77026 8.82608 1.8114C10.0502 0.976898 11.3804 1.68517 13.7815 0.701068Z" fill="white"/>
<path opacity="0.3" d="M5.72705 17.0239C5.72705 17.0239 18.954 16.4793 28.9379 8.94538C28.6784 4.9926 25.2703 6.57979 24.9283 6.699C24.7962 6.74575 23.749 9.1581 20.7324 11.2362C16.5223 14.1487 8.01959 17.426 5.72705 17.0239Z" fill="white"/>
<path d="M5.20557 17.2109C5.20557 17.2109 20.0646 15.0394 26.3031 7.15951C25.0601 3.40541 22.4067 6.33435 22.1166 6.54473C22.001 6.62421 22.2416 5.60972 19.1448 7.33248C14.6753 9.80093 7.50754 17.0333 5.20557 17.2109Z" fill="white"/>
<path d="M9.40337 1.42591C10.7454 0.673221 18.1867 0.832174 17.5806 1.11735C12.6983 3.42217 4.90556 13.1791 3.12247 17.0126C2.03752 19.3502 0.528027 22.7583 4.51875 23.158C6.50703 23.3567 8.07785 23.4689 13.9767 21.0846C19.2623 18.9575 29.3358 12.389 28.8593 9.72184C28.5692 8.08556 25.6045 6.11034 22.1161 6.53344C20.4085 6.73914 17.0098 7.93596 15.0805 9.41562C12.9295 11.0683 8.32314 14.9603 5.89616 16.8607C4.6013 17.8682 5.18859 16.3301 5.18859 16.3301C5.18859 16.3301 11.894 2.1038 19.9061 1.63629C26.2743 1.26696 31.4325 5.64517 31.8594 9.85274C32.0198 11.4399 28.4772 13.9481 25.838 15.9841C16.1914 23.4175 1.65071 27.5666 0.254431 22.1505C-0.0757705 20.8649 -0.0686947 19.0977 2.0446 13.5016C3.40314 9.90417 6.2358 3.19543 9.40337 1.42591Z" fill="white"/>
<path d="M37.6644 21.5052C39.0791 22.271 40.6591 22.6879 42.2707 22.7207C44.8133 22.7207 46.0044 21.6104 46.0044 20.2242C46.0044 18.7679 45.0114 17.9685 42.4311 17.1363C38.9758 16.0541 37.346 14.3897 37.346 12.3888C37.346 9.68426 39.8485 7.46594 43.9807 7.46594C45.6129 7.44857 47.2271 7.80453 48.6979 8.50614L47.8252 10.7245C46.6167 10.0814 45.2651 9.74793 43.8934 9.75439C41.8273 9.75439 40.6763 10.7946 40.6763 12.0428C40.6763 13.429 41.8273 14.0531 44.3298 14.8853C47.6672 15.9956 49.3748 17.4566 49.3748 19.9484C49.3748 22.896 46.752 24.9765 42.1858 24.9765C40.0796 24.9765 38.1338 24.5253 36.7847 23.8311L37.6644 21.5052Z" fill="white"/>
<path d="M69.2788 16.0871C69.2788 22.2956 64.3541 25.0002 59.7077 25.0002C54.5046 25.0002 50.4927 21.6715 50.4927 16.3653C50.4927 10.7552 54.7027 7.45459 60.0261 7.45459C65.5452 7.45459 69.2788 10.9562 69.2788 16.0871ZM54.0282 16.2624C54.0282 19.9371 56.4505 22.7117 59.8657 22.7117C63.2031 22.7117 65.7055 19.9721 65.7055 16.1923C65.7055 13.3499 64.0758 9.74304 59.9459 9.74304C55.816 9.74304 54.0282 13.0717 54.0282 16.2624Z" fill="white"/>
<path d="M75.9131 3.01562V7.83564H80.9181V10.1592H75.9131V19.2078C75.9131 21.2882 76.5877 22.4803 78.5335 22.4803C79.2147 22.4887 79.8946 22.4189 80.5596 22.2723L80.7199 24.5607C79.7167 24.8662 78.6698 25.0068 77.6208 24.9768C75.9933 24.9768 74.682 24.5257 73.847 23.6935C72.8541 22.7912 72.4979 21.2999 72.4979 19.3246V10.1592H69.519V7.83564H72.4979V3.81506L75.9131 3.01562Z" fill="white"/>
<path d="M82.7061 24.6166C82.7839 23.4736 82.8641 21.7742 82.8641 20.2828V0H86.3241V10.54H86.4043C87.6355 8.66994 89.8596 7.45442 92.9565 7.45442C97.7232 7.45442 101.098 10.921 101.058 16.0192C101.058 22.0173 96.7302 25 92.4399 25C89.6592 25 87.4374 24.065 86.0057 21.8443H85.8878L85.7274 24.6166H82.7061ZM86.3241 17.8915C86.336 18.2655 86.389 18.637 86.4821 18.9995C87.1591 21.1033 89.1827 22.5713 91.7253 22.5713C95.3787 22.5713 97.5651 19.972 97.5651 16.122C97.5651 12.7606 95.5792 9.88079 91.8456 9.88079C89.461 9.88079 87.2369 11.3043 86.5222 13.6209C86.4077 14.0279 86.3412 14.4468 86.3241 14.8691V17.8915Z" fill="white"/>
<path d="M107.37 3.12081C107.41 4.16102 106.535 4.99085 105.146 4.99085C103.915 4.99085 103.042 4.15868 103.042 3.12081C103.042 2.08294 103.955 1.21338 105.226 1.21338C106.535 1.21338 107.37 2.04554 107.37 3.12081ZM103.478 24.6262V7.83563H106.974V24.6168L103.478 24.6262Z" fill="white"/>
<path d="M114.995 3.01562V7.83564H120V10.1592H114.995V19.2078C114.995 21.2882 115.67 22.4803 117.618 22.4803C118.298 22.4886 118.977 22.4188 119.642 22.2723L119.802 24.5607C118.799 24.8664 117.752 25.007 116.703 24.9768C115.075 24.9768 113.764 24.5257 112.929 23.6935C111.936 22.7912 111.578 21.2999 111.578 19.3247V10.1592H108.601V7.83564H111.58V3.81506L114.995 3.01562Z" fill="white"/>
</g>
<defs>
<clipPath id="clip0_944_941">
<rect width="120" height="25" fill="white"/>
</clipPath>
</defs>
</svg>
